<?xml version="1.0" encoding="UTF-8" standalone="no"?>
<!DOCTYPE svg PUBLIC "-//W3C//DTD SVG 20010904//EN" "http://www.w3.org/TR/2001/REC-SVG-20010904/DTD/svg10.dtd">
<svg version="1.0" xmlns="http://www.w3.org/2000/svg" width="300.000000pt" height="300.000000pt" viewBox="0 0 300.000000 300.000000" preserveAspectRatio="xMidYMid meet">
<metadata>
Created by potrace 1.10, written by Peter Selinger 2001-2011
</metadata>
<g transform="translate(0.000000,300.000000) scale(0.100000,-0.100000)" fill="#000000" stroke="none">
<path d="M1500 2490 c0 -54 -27 -56 -33 -2 l-4 37 -1 -41 c-1 -28 3 -44 12 -47 21 -8 36 13 36 50 0 26 4 33 20 33 16 0 20 -7 20 -34 0 -35 23 -66 35 -46 3 5 -1 10 -9 10 -12 0 -16 10 -16 40 0 38 -2 40 -30 40 -28 0 -30 -2 -30 -40z"/>
<path d="M1417 2509 c-12 -7 -15 -17 -11 -35 5 -21 3 -25 -12 -23 -25 5 -44 -8 -44 -29 1 -14 3 -14 13 3 7 11 21 20 32 20 15 0 20 6 18 26 -1 19 5 30 20 37 12 6 18 11 12 11 -5 0 -18 -4 -28 -10z"/>
<path d="M1591 2488 l1 -33 7 30 6 29 33 -29 33 -30 -66 -33 c-63 -33 -69 -34 -164 -30 -55 1 -97 0 -94 -4 2 -5 49 -8 104 -8 93 0 103 2 155 31 30 17 57 29 60 26 3 -3 -3 -12 -15 -19 -12 -7 -21 -16 -21 -21 0 -4 10 -1 22 7 34 24 38 20 38 -34 0 -48 -1 -50 -40 -70 -21 -11 -42 -20 -45 -20 -3 0 -5 23 -5 50 0 28 5 50 10 50 6 0 10 5 10 11 0 8 -5 8 -15 -1 -10 -8 -15 -31 -15 -71 0 -33 2 -59 4 -59 2 0 27 12 55 26 51 27 51 27 51 76 0 60 -28 117 -68 141 -40 23 -42 22 -41 -15z"/>
<path d="M1435 2330 c-14 -6 -2 -9 43 -9 48 -1 62 -4 62 -16 0 -12 -14 -15 -65 -15 -51 0 -65 3 -65 15 0 8 -9 15 -19 15 -11 0 -25 2 -33 5 -8 3 -13 -3 -14 -19 -2 -24 0 -25 90 -28 50 -2 97 -2 104 0 15 5 16 34 0 50 -14 14 -73 15 -103 2z"/>
<path d="M1633 2247 c-27 -13 -43 -28 -43 -39 0 -23 1 -23 60 7 28 14 50 32 50 40 0 20 -16 18 -67 -8z m52 3 c-10 -16 -85 -52 -85 -40 0 5 17 18 38 29 42 23 56 26 47 11z"/>
<path d="M1193 2201 c-40 -21 -93 -55 -119 -76 -125 -103 -218 -283 -238 -462 l-6 -53 46 0 46 0 -7 41 c-5 29 -4 39 4 35 7 -5 9 3 5 24 -5 20 -3 30 6 30 7 0 10 7 7 15 -4 8 -2 17 4 21 5 3 7 15 3 27 -3 12 -3 19 1 15 5 -5 23 23 41 61 40 82 147 195 233 244 48 29 56 38 59 66 2 19 0 37 -5 42 -4 4 -41 -9 -80 -30z m77 -8 c0 -23 -9 -33 -49 -55 -113 -64 -206 -167 -291 -321 -12 -22 -19 -41 -17 -44 3 -3 1 -17 -3 -31 -5 -15 -14 -46 -20 -69 -8 -30 -15 -41 -25 -37 -26 10 -7 120 42 242 14 34 29 62 34 62 5 0 9 7 9 15 0 8 5 15 10 15 6 0 10 6 10 14 0 30 139 163 208 199 81 44 92 45 92 10z"/>
<path d="M1344 2214 c3 -9 6 -21 6 -28 0 -9 27 -13 100 -14 99 -1 100 -1 100 22 0 32 -15 36 -122 36 -78 0 -89 -2 -84 -16z m49 -1 c-7 -2 -19 -2 -25 0 -7 3 -2 5 12 5 14 0 19 -2 13 -5z m145 -13 c2 -13 -9 -16 -63 -15 -56 0 -65 3 -65 18 0 16 8 18 62 15 47 -2 64 -7 66 -18z"/>
<path d="M1760 2192 c0 -33 4 -40 33 -54 163 -78 309 -282 323 -452 l7 -74 43 -4 44 -3 -1 35 c-2 30 -3 31 -6 8 -4 -23 -9 -28 -32 -28 -28 0 -29 3 -39 68 -27 179 -148 353 -308 444 -45 25 -54 34 -54 58 0 16 6 31 13 33 7 3 5 6 -5 6 -14 1 -18 -7 -18 -37z"/>
<path d="M1853 2187 c155 -86 287 -252 327 -412 7 -24 8 -26 9 -7 2 35 -45 139 -95 214 -53 77 -161 176 -235 213 -70 36 -74 30 -6 -8z"/>
<path d="M1676 2201 c-4 -6 -2 -11 5 -11 18 0 4 -11 -41 -31 -22 -10 -40 -14 -40 -10 0 5 14 14 30 21 17 7 29 15 26 17 -9 9 -66 -28 -66 -42 0 -20 13 -19 60 5 44 23 57 37 42 52 -6 6 -12 6 -16 -1z"/>
<path d="M1686 2127 c3 -8 -10 -20 -31 -30 -40 -19 -59 -22 -50 -7 3 6 1 10 -4 10 -6 0 -11 -9 -11 -20 0 -25 1 -25 60 5 28 14 50 32 50 40 0 8 -4 15 -10 15 -5 0 -7 -6 -4 -13z"/>
<path d="M1634 2115 c-10 -8 -14 -15 -8 -15 5 0 19 7 30 15 10 8 14 15 8 15 -5 0 -19 -7 -30 -15z"/>
<path d="M1340 2108 c1 -35 18 -41 112 -42 93 -1 93 -1 93 24 0 25 -1 25 -102 28 -79 2 -103 0 -103 -10z m200 -13 c0 -16 -1 -17 -77 -19 -44 -1 -53 2 -53 17 0 14 10 17 65 17 51 0 65 -3 65 -15z"/>
<path d="M1463 2093 c9 -2 23 -2 30 0 6 3 -1 5 -18 5 -16 0 -22 -2 -12 -5z"/>
<path d="M1692 2020 c-1 -30 -5 -66 -8 -80 -5 -19 -4 -22 5 -14 8 7 11 35 8 80 -3 65 -3 66 -5 14z"/>
<path d="M1741 2057 c21 -16 79 -45 79 -39 0 10 -54 42 -71 42 -7 0 -10 -1 -8 -3z"/>
<path d="M1642 2028 c-20 -21 -29 -22 -157 -19 l-136 3 3 -39 c2 -24 8 -37 16 -35 6 1 18 3 25 5 7 1 13 -12 15 -32 6 -59 59 -84 60 -28 0 53 1 57 17 57 12 0 15 -13 15 -55 0 -54 0 -55 30 -55 30 0 30 1 30 55 0 42 3 55 15 55 11 0 15 -12 15 -45 0 -25 3 -45 8 -45 4 0 23 11 43 23 30 18 34 24 23 35 -7 6 -18 12 -24 12 -6 0 -10 8 -8 18 2 10 12 17 26 16 12 0 21 4 19 10 -6 19 -26 17 -48 -5 l-22 -22 21 -18 c22 -17 31 -36 12 -24 -5 3 -10 1 -10 -5 0 -6 -4 -8 -10 -5 -5 3 -11 0 -11 -7 -1 -7 -5 5 -8 27 -5 31 -10 40 -26 40 -16 0 -21 -8 -25 -40 -7 -55 -33 -55 -40 0 -7 59 -54 63 -65 5 -5 -25 -19 -44 -14 -20 4 25 -12 70 -30 80 -13 8 -14 10 -1 10 10 1 9 4 -5 10 -13 6 16 9 83 9 63 1 102 -3 102 -9 0 -13 72 23 89 44 20 24 -1 19 -27 -6z"/>
<path d="M1173 1994 c-29 -26 -53 -50 -53 -54 0 -4 33 -43 74 -86 52 -55 71 -81 63 -87 -8 -6 -5 -7 6 -3 10 3 22 6 27 6 4 0 -30 37 -76 82 l-84 82 42 43 c39 40 68 58 52 31 -4 -7 -3 -8 5 -4 6 4 9 12 6 17 -4 5 -2 9 2 9 5 0 14 -10 22 -22 13 -20 11 -24 -17 -46 l-30 -23 24 -26 c13 -14 21 -30 18 -35 -3 -4 0 -7 8 -6 7 2 12 -4 10 -14 -1 -9 2 -19 8 -23 6 -4 7 1 3 11 -4 12 -3 15 5 10 7 -4 12 -13 12 -21 0 -19 29 -47 41 -39 5 3 -18 35 -51 71 -59 63 -61 66 -43 83 11 9 24 19 31 21 14 5 -24 69 -41 69 -7 0 -36 -21 -64 -46z m158 -181 c13 -16 12 -17 -3 -4 -10 7 -18 15 -18 17 0 8 8 3 21 -13z"/>
<path d="M1834 1953 c-16 -21 -38 -50 -51 -64 l-23 -26 22 -19 23 -19 -20 25 -20 25 28 -24 28 -25 25 26 26 25 -25 24 -26 24 24 28 24 27 25 -27 c24 -26 25 -28 9 -48 -14 -16 -13 -16 7 2 l24 23 -29 30 c-16 16 -32 30 -36 30 -5 0 -20 -17 -35 -37z m-4 -78 c0 -8 -8 -15 -17 -14 -11 0 -13 3 -5 6 6 2 10 9 6 14 -3 5 0 9 5 9 6 0 11 -7 11 -15z"/>
<path d="M1051 1826 c-28 -45 -27 -50 14 -72 36 -19 36 -19 29 -73 -7 -58 1 -71 44 -71 18 0 22 5 22 30 0 17 7 46 14 65 15 34 14 36 -19 73 -19 20 -35 33 -35 28 0 -5 -11 1 -25 14 -13 12 -22 27 -19 31 3 5 3 9 0 9 -2 0 -14 -15 -25 -34z m70 -59 c35 -30 35 -31 26 -79 -6 -29 -15 -48 -23 -48 -16 0 -16 2 -5 53 9 37 8 39 -30 63 -38 24 -45 34 -33 47 8 8 19 2 65 -36z m20 16 c13 -16 12 -17 -3 -4 -10 7 -18 15 -18 17 0 8 8 3 21 -13z"/>
<path d="M1718 1835 c-16 -13 -28 -28 -28 -34 0 -5 -5 -13 -12 -17 -7 -5 -8 -2 -3 7 4 8 0 7 -11 -3 -17 -17 -17 -18 3 -40 26 -29 54 -84 51 -100 -2 -8 10 -14 30 -16 l34 -3 -3 43 c-1 24 -10 52 -18 62 -13 16 -14 18 -1 11 12 -6 13 -5 3 5 -10 11 -7 18 15 34 24 18 40 46 28 46 -3 0 -21 -15 -41 -33 l-37 -34 16 -37 c10 -25 13 -44 7 -54 -7 -13 -14 -5 -35 38 l-26 54 29 30 c16 17 28 39 28 49 0 9 -1 17 -1 17 -1 0 -13 -12 -28 -25z m22 2 c0 -2 -10 -12 -22 -23 l-23 -19 19 23 c18 21 26 27 26 19z"/>
<path d="M1940 1827 c-19 -18 -46 -40 -59 -50 -14 -9 -23 -19 -20 -22 3 -2 31 18 62 46 31 28 57 47 57 42 0 -14 29 -50 30 -37 0 7 -8 21 -17 33 l-18 21 -35 -33z"/>
<path d="M1354 1789 c-3 -6 -15 -9 -25 -6 -11 3 -19 1 -19 -3 0 -5 13 -11 30 -15 29 -6 29 -7 13 -31 -10 -17 -19 -21 -27 -15 -22 18 -51 4 -73 -35 -40 -72 -70 -89 -59 -32 8 39 -1 32 -14 -11 -9 -31 -9 -31 30 -31 30 0 38 3 34 14 -3 8 -1 17 5 21 6 3 11 13 11 21 0 26 29 47 57 41 19 -4 32 3 54 27 31 34 37 51 14 43 -8 -4 -17 -1 -21 5 -5 7 -2 8 6 3 9 -5 11 -4 6 3 -9 15 -13 15 -22 1z"/>
<path d="M1484 1784 c-13 -5 -7 -41 9 -61 5 -7 19 -13 31 -12 l21 0 -21 9 c-28 11 -36 24 -28 44 13 35 64 11 64 -30 0 -57 -79 -56 -91 1 -6 27 -7 28 -8 5 0 -25 39 -80 58 -80 16 0 51 51 51 75 0 39 -46 65 -86 49z"/>
<path d="M2017 1765 c4 -16 7 -50 7 -75 -1 -38 0 -41 8 -20 10 27 3 86 -13 110 -7 10 -7 6 -2 -15z"/>
<path d="M1211 1747 c-9 -12 -7 -14 9 -13 11 0 21 5 21 11 1 16 -17 17 -30 2z"/>
<path d="M1937 1730 c5 -17 0 -20 -28 -21 -19 -1 -38 -1 -42 0 -5 1 -6 -3 -2 -9 3 -5 24 -10 46 -10 37 0 39 2 39 30 0 17 -4 30 -9 30 -5 0 -7 -9 -4 -20z"/>
<path d="M2190 1724 c0 -10 5 -26 10 -34 8 -11 9 -7 4 15 -8 37 -14 45 -14 19z"/>
<path d="M1961 1694 c0 -11 3 -14 6 -6 3 7 2 16 -1 19 -3 4 -6 -2 -5 -13z"/>
<path d="M1007 1683 c-11 -10 -8 -174 4 -218 15 -60 30 -95 41 -95 5 0 19 7 32 15 l24 16 -19 49 c-13 36 -17 66 -14 112 3 42 1 56 -5 43 -6 -14 -9 -16 -10 -5 -1 11 -4 10 -9 -4 -4 -11 -4 -40 1 -65 4 -25 10 -56 12 -68 2 -13 9 -30 16 -39 12 -13 11 -17 -1 -25 -8 -5 -18 -7 -24 -6 -17 6 -43 119 -44 194 l-1 73 32 -7 c21 -4 29 -3 24 5 -3 5 0 13 6 16 7 3 -4 3 -25 0 -26 -3 -37 -2 -32 5 7 12 2 15 -8 4z m60 -135 c-3 -7 -5 -2 -5 12 0 14 2 19 5 13 2 -7 2 -19 0 -25z"/>
<path d="M1577 1666 c-14 -13 -36 -43 -48 -67 -20 -39 -23 -59 -25 -176 -1 -130 7 -171 20 -95 7 46 43 83 109 111 26 11 47 22 47 24 0 4 -58 1 -70 -4 -3 -1 -9 -1 -13 0 -5 1 -6 -3 -2 -9 3 -5 1 -10 -5 -10 -7 0 -25 -14 -41 -31 l-29 -31 -1 48 c-2 124 14 188 60 228 l21 19 0 -58 c0 -32 3 -56 6 -52 8 7 11 127 3 127 -3 0 -18 -11 -32 -24z"/>
<path d="M1964 1654 c3 -9 6 -22 6 -30 0 -10 12 -14 40 -14 37 0 40 2 39 28 -2 23 -2 24 -6 5 -3 -18 -11 -23 -34 -23 -24 0 -29 4 -29 25 0 14 -5 25 -11 25 -6 0 -8 -7 -5 -16z"/>
<path d="M1280 1607 c0 -53 60 -137 123 -168 22 -12 51 -33 65 -47 l25 -27 -7 34 c-3 18 -6 47 -6 63 0 17 -4 27 -10 23 -5 -3 -10 -2 -10 3 0 6 -15 13 -33 16 -47 9 -114 55 -132 91 -9 20 -15 24 -15 12z m105 -105 c11 -6 35 -16 53 -22 24 -9 32 -18 32 -37 l0 -25 -52 31 c-29 16 -64 45 -78 63 l-25 33 25 -16 c14 -9 34 -21 45 -27z"/>
<path d="M1348 1613 c7 -3 10 -8 7 -13 -3 -4 5 -6 17 -2 13 3 19 1 15 -5 -8 -12 47 -76 68 -79 13 -2 12 3 -2 28 -21 36 -60 65 -94 71 -13 2 -18 2 -11 0z m101 -86 c-2 -2 -17 12 -33 32 l-30 36 34 -32 c19 -18 32 -34 29 -36z"/>
<path d="M1639 1599 l-24 -21 25 16 c13 9 31 16 40 16 8 0 -2 -10 -23 -22 -21 -13 -40 -32 -42 -45 -3 -13 -7 -34 -10 -47 -4 -20 -1 -23 22 -23 21 0 23 1 10 9 -21 11 -22 51 -3 67 20 17 56 -3 56 -29 0 -24 8 -25 39 -4 34 24 65 104 40 104 -5 0 -8 -4 -5 -9 6 -9 -30 -45 -55 -53 -8 -3 -26 0 -39 7 -23 12 -23 13 14 26 30 11 34 15 19 20 -29 12 -40 10 -64 -12z"/>
<path d="M1908 1613 c-34 -4 -38 -7 -38 -32 0 -25 -4 -29 -38 -35 -24 -3 -47 -16 -63 -33 l-24 -28 27 23 c14 13 44 26 67 29 40 5 48 17 42 56 0 4 15 7 34 7 19 0 35 5 35 10 0 6 -1 9 -2 8 -2 -1 -20 -3 -40 -5z"/>
<path d="M1581 1534 c0 -11 3 -14 6 -6 3 7 2 16 -1 19 -3 4 -6 -2 -5 -13z"/>
<path d="M1090 1520 c0 -25 14 -37 48 -42 29 -4 32 -2 32 23 0 24 -4 27 -40 31 -31 3 -40 0 -40 -12z"/>
<path d="M1207 1532 c-27 -3 -29 -5 -22 -40 8 -45 18 -58 51 -66 47 -12 83 32 56 69 -15 22 -58 40 -85 37z m44 -32 c10 -6 19 -20 19 -30 0 -26 -36 -27 -50 -1 -20 39 -8 51 31 31z"/>
<path d="M842 1463 c35 -226 204 -436 420 -524 38 -16 73 -29 77 -29 3 0 4 22 3 50 -2 27 -8 47 -13 44 -17 -10 -154 65 -213 117 -68 61 -119 127 -109 142 3 5 2 7 -4 4 -13 -8 -57 79 -47 94 5 8 3 9 -6 4 -10 -6 -12 -4 -7 8 3 9 2 19 -4 23 -6 3 -8 12 -5 20 3 8 1 14 -5 14 -7 0 -8 12 -4 33 5 25 4 29 -5 17 -9 -12 -11 -10 -8 10 4 23 1 25 -37 25 l-41 0 8 -52z m50 4 c-2 -10 1 -24 7 -30 5 -7 12 -24 14 -37 2 -14 9 -38 15 -53 7 -16 12 -31 12 -34 0 -3 9 -17 19 -32 11 -15 21 -33 23 -40 9 -39 145 -166 226 -212 42 -24 80 -47 83 -52 3 -5 9 -8 13 -8 3 1 6 -2 5 -6 0 -13 -52 -5 -61 9 -4 7 -8 9 -8 5 0 -19 -142 78 -207 142 -64 63 -153 224 -167 304 -4 21 -10 45 -13 54 -4 11 0 14 18 11 17 -2 23 -8 21 -21z"/>
<path d="M1939 1487 c6 -28 11 -32 44 -35 42 -4 43 -12 6 -82 -34 -65 -35 -66 -58 -46 -19 17 -19 21 -6 53 8 20 15 42 15 49 0 25 -39 54 -72 54 -43 -1 -92 -42 -83 -70 5 -16 2 -20 -14 -20 -23 0 -37 36 -26 69 9 30 -4 26 -15 -5 -15 -39 -3 -71 32 -83 17 -6 32 -11 34 -11 1 0 1 16 -1 35 -2 28 2 39 22 55 33 26 75 26 98 0 16 -18 17 -24 5 -60 -7 -22 -17 -40 -22 -40 -18 0 -6 -19 25 -39 l32 -20 17 22 c17 22 58 118 58 137 0 6 -18 10 -40 10 -36 0 -40 3 -40 24 0 14 -4 27 -9 30 -4 3 -5 -9 -2 -27z"/>
<path d="M2112 1488 c-6 -84 -54 -191 -120 -274 -56 -68 -115 -132 -107 -114 3 8 -1 6 -10 -5 -9 -11 -20 -20 -26 -20 -5 0 -13 -5 -17 -11 -10 -16 -71 -46 -81 -39 -5 3 -11 0 -13 -6 -2 -6 -16 -12 -31 -12 -25 -2 -27 -5 -27 -49 0 -27 1 -48 3 -48 1 0 24 7 50 15 95 29 189 87 273 170 68 67 89 97 127 175 38 79 77 201 77 241 0 5 -22 9 -48 9 -47 0 -48 -1 -50 -32z m88 15 c0 -22 -31 -116 -57 -179 -41 -97 -114 -196 -192 -261 -69 -57 -164 -109 -218 -119 -29 -6 -33 -4 -33 14 0 15 10 24 38 33 20 7 47 19 60 27 12 8 22 10 22 6 0 -5 4 -4 8 1 4 6 33 28 65 49 31 22 57 42 57 45 0 3 13 20 28 36 58 63 110 147 79 129 -6 -4 -4 2 6 13 20 22 67 160 67 193 0 16 7 20 35 20 19 0 35 -3 35 -7z"/>
<path d="M1689 1453 c-13 -15 -12 -15 9 -4 23 12 28 21 13 21 -5 0 -15 -7 -22 -17z"/>
<path d="M1110 1448 c0 -17 54 -111 73 -126 12 -10 22 -6 57 23 27 22 52 35 71 35 33 0 39 24 13 56 -15 18 -15 18 -11 -6 3 -25 1 -26 -49 -28 -49 -2 -55 0 -75 28 -16 21 -31 30 -51 30 -16 0 -28 -5 -28 -12z m57 -27 c6 -23 47 -40 83 -34 23 3 22 2 -10 -22 -18 -14 -37 -25 -41 -25 -10 0 -54 59 -62 83 -4 11 -1 17 9 17 9 0 18 -9 21 -19z"/>
<path d="M1855 1440 c3 -5 14 -10 23 -10 15 0 15 2 2 10 -20 13 -33 13 -25 0z"/>
<path d="M1862 1399 c2 -6 8 -10 13 -10 5 0 11 4 13 10 2 6 -4 11 -13 11 -9 0 -15 -5 -13 -11z"/>
<path d="M1310 1356 c0 -5 -3 -6 -6 -3 -10 10 -44 -33 -44 -55 0 -10 11 -30 25 -44 21 -21 29 -23 40 -14 8 7 15 19 15 27 0 24 43 11 57 -17 9 -17 13 -77 13 -188 0 -155 1 -164 20 -169 18 -5 20 -14 20 -104 0 -69 5 -111 16 -137 9 -20 21 -64 28 -96 7 -33 19 -62 26 -64 10 -4 11 0 4 14 -5 11 -10 156 -12 324 -3 346 -4 360 -16 360 -4 0 -5 12 -2 28 5 21 4 24 -5 12 -9 -12 -10 -11 -6 8 3 14 1 20 -6 15 -7 -4 -8 0 -4 11 5 11 3 15 -4 10 -7 -4 -10 -1 -7 7 8 20 -41 69 -60 62 -10 -4 -13 -2 -8 5 5 8 1 10 -10 5 -10 -4 -15 -2 -11 4 3 5 -8 9 -28 9 -19 -1 -35 -5 -35 -10z m82 -32 c17 -10 49 -51 48 -60 -1 -4 3 -10 8 -13 5 -3 19 -37 32 -74 19 -60 21 -81 15 -160 -3 -51 -6 -153 -6 -227 0 -86 -3 -128 -9 -115 -5 11 -9 64 -9 118 -1 83 -4 100 -21 117 -18 18 -20 33 -20 160 0 150 -11 199 -48 219 -28 15 -63 14 -61 -1 4 -36 -1 -41 -21 -20 -16 17 -18 26 -10 41 5 11 15 22 22 24 16 7 63 1 80 -9z m48 -9 c13 -14 21 -25 18 -25 -2 0 -15 11 -28 25 -13 14 -21 25 -18 25 2 0 15 -11 28 -25z"/>
<path d="M1605 1338 c-36 -31 -76 -96 -74 -120 0 -7 6 0 13 16 8 18 15 24 18 16 3 -10 6 -9 11 4 4 10 3 15 -3 11 -12 -7 -12 -3 -4 19 3 9 11 13 17 9 5 -3 7 -2 4 4 -10 16 37 54 59 47 15 -5 16 -4 4 4 -11 8 -3 12 30 15 l45 4 -42 1 c-35 2 -49 -4 -78 -30z"/>
<path d="M1725 1350 c-4 -6 1 -7 11 -3 10 4 15 2 11 -4 -3 -5 0 -10 8 -10 11 0 12 4 4 14 -14 15 -26 17 -34 3z"/>
<path d="M1139 1343 c-1 -5 -1 -11 0 -15 0 -3 -13 -11 -30 -17 l-31 -11 21 -29 c43 -60 198 -180 234 -181 4 0 7 22 6 49 -2 28 -6 48 -10 45 -10 -6 -81 29 -80 39 1 4 -1 6 -3 5 -8 -5 -45 35 -43 45 1 6 -3 11 -10 12 -15 0 -54 50 -46 59 3 3 3 6 0 6 -4 0 -8 -3 -8 -7z m15 -60 c3 -7 5 -16 5 -19 0 -4 10 -12 23 -18 13 -7 22 -19 20 -28 -2 -12 3 -15 18 -11 13 4 20 0 20 -10 0 -13 23 -26 54 -31 13 -2 31 -34 24 -41 -14 -14 -102 50 -92 66 3 5 -1 7 -8 4 -14 -5 -91 67 -94 89 -2 17 24 17 30 -1z"/>
<path d="M1767 1293 c-9 -48 -67 -59 -67 -12 0 27 -32 24 -61 -7 -23 -25 -24 -31 -25 -177 l-1 -152 6 146 c4 108 10 151 21 165 30 38 50 44 50 15 0 -10 7 -24 15 -31 33 -27 88 27 73 72 -3 7 -7 -2 -11 -19z"/>
<path d="M1710 1290 c0 -5 5 -10 11 -10 5 0 7 5 4 10 -3 6 -8 10 -11 10 -2 0 -4 -4 -4 -10z"/>
<path d="M1790 1243 c-25 -20 -44 -40 -42 -46 2 -5 -4 -7 -13 -3 -10 4 -14 2 -9 -5 4 -8 -1 -9 -15 -4 -18 5 -21 2 -21 -24 0 -16 -3 -36 -6 -45 -8 -21 21 -21 71 0 42 17 145 90 145 102 0 9 -53 62 -61 61 -2 0 -24 -17 -49 -36z m79 3 l23 -24 -43 -32 c-39 -29 -140 -82 -145 -77 -1 1 0 14 3 30 5 25 15 31 50 30 7 0 11 3 10 7 -1 5 7 16 18 25 20 16 20 16 -2 6 -12 -6 -25 -11 -28 -11 -7 0 77 68 86 69 3 1 16 -10 28 -23z"/>
<path d="M1820 1245 c-16 -20 -5 -32 14 -16 10 8 16 9 21 1 3 -5 10 -10 15 -10 6 0 2 9 -7 20 -21 24 -27 25 -43 5z"/>
<path d="M1521 1184 c0 -11 3 -14 6 -6 3 7 2 16 -1 19 -3 4 -6 -2 -5 -13z"/>
<path d="M1587 950 c-3 -11 -1 -20 4 -20 5 0 9 9 9 20 0 11 -2 20 -4 20 -2 0 -6 -9 -9 -20z"/>
<path d="M1611 918 c-1 -11 -9 -18 -20 -18 -11 0 -22 -4 -25 -8 -7 -12 32 -8 45 5 6 6 9 17 6 25 -4 9 -6 7 -6 -4z"/>
<path d="M1549 765 c-3 -60 -8 -117 -10 -125 -3 -8 -4 -11 -1 -6 2 4 9 2 14 -5 5 -9 6 -4 2 15 -5 20 -4 27 4 22 17 -10 23 29 19 124 l-3 85 -4 -100 -4 -100 -6 100 -5 100 -6 -110z"/>
<path d="M1536 574 c-4 -20 -5 -38 -3 -40 3 -3 8 11 11 32 4 20 5 38 3 40 -3 3 -8 -11 -11 -32z"/>
</g>
</svg>