<svg xmlns="http://www.w3.org/2000/svg" width="666.7" height="666.7" version="1.0" viewBox="0 0 500 500"><path d="M225.4 76.4c.6 5.8-.9 9.1-3.9 8-1.7-.7-1.8-1.2-1.5-7.7.1-2.6-.1-4.7-.4-4.7-.3 0-2.6 1-5 2.2-3.8 1.8-4.3 2.4-3.3 3.6 2.6 3.3 0 8-3.5 6.1-.9-.5-1.9-.9-2.1-.9-.6 0-3.7 6.6-3.7 7.9 0 .8 4.8 1.1 15 1.1 12 0 15.8-.3 18.3-1.6a13 13 0 0 0 3.8-2.6c.3-.5 1.2-1.1 2-1.2a29 29 0 0 0 5.2-2.1c2.9-1.5 4-1.6 4.9-.7 1.5 1.5.4 2.7-6.5 6.8l-5.2 3-.3 8.2-.3 8.2 5.8-2.7a43 43 0 0 0 6.4-3.6c.3-.5 1-.8 1.5-.8 1.2.2 1.7-7.2.9-13.8-.6-4.9-1.2-6-6.1-10.8-6.8-6.6-8.9-6.9-8.1-1.3.3 2.2.1 4.3-.4 4.6-.5.3-.7.9-.4 1.4.3.4-.2 1.1-1.1 1.4-3 1.1-4.4-1.3-4.4-7.5V71h-8.3l.7 5.4zm6.3 8.2c1.4 2.9.3 3.8-4.2 3.2l-2.7-.3 2.2-2.8c2.6-3.3 3.2-3.4 4.7-.1zm-13.9-.3c2 2.4 1.7 4-.8 4.3-1.4.2-3.2 0-4-.6-1.2-.7-1.2-1.2.4-2.9 2.2-2.4 3-2.6 4.4-.8zm32.8 14c-.5 2.1-4.2 4.7-6.6 4.7-1.7 0-1.1-6.6.8-8.2 4-3.6 7.2-1.7 5.8 3.5z"/><path d="M202 104.2v3.3l14.3-.3c7.8-.2 14.6-.8 15.2-1.3.6-.6.6-1.6-.1-2.7-1-1.5-3.2-1.7-15.3-2l-14.1-.3v3.3z"/><path d="M245.5 113.5c-3.9 2.2-6.1 4.1-6.3 5.4-.2 1.2-.2 2.1.1 2.1 1.8 0 14.3-7.9 14.5-9.3.5-2.4-1.4-2-8.3 1.8z"/><path d="M179.7 120.5c-4.9 2.5-10.2 5.5-11.9 6.7a178 178 0 0 0-22.3 21.8 178.6 178.6 0 0 0-14.9 29c-.2 1.4-1.3 6.3-2.4 11-1.1 4.7-2.3 10.9-2.6 13.8l-.7 5.3 6.3-.3 6.3-.3.1-6.1c.3-11.1 3.5-21.7 11.5-38 1.6-3.2 7.6-10.1 15.4-17.9a73 73 0 0 1 18-15c8.4-4.5 8.5-4.6 8.5-9.7 0-3.2-.4-4.8-1.2-4.7-.7 0-5.3 2-10.1 4.4zm6.1 3.5c-.7 1.1-1.6 2-2.1 2-.4 0-3.6 1.9-7 4.2a150 150 0 0 0-26.5 25.8c-7.8 10.6-16.2 32.9-16.2 43.1 0 2.7-2.2 5.4-3.3 4.2-.4-.3-.7-2.4-.7-4.5 0-11 9.1-35.1 17.8-46.8 7.4-10 19.9-21.1 30.3-26.9 6.6-3.7 9.5-4.1 7.7-1.1z"/><path d="M264.4 117.6c.3.9.6 3.3.6 5.3 0 3.5.3 4 4.2 5.7 17.8 8 35 26.9 44.4 48.9 4 9.2 4.5 11.5 5.1 20.4l.6 9.9 4.6.4c5.7.5 7.3 0 6.7-2.1-.3-.9-.6-4.3-.7-7.6-.2-3.3-.5-6.5-.8-7-.3-.6-.6-2.4-.8-4-.4-7.1-8.6-25.2-16.4-36.3a121.5 121.5 0 0 0-25.3-24.6 21.1 21.1 0 0 0-6.8-4c-.4.3-.8 0-.8-.7s-.3-1-.6-.7c-.3.4-3-.7-6.1-2.3-6.2-3.3-8.8-3.7-7.9-1.3zm13 7.4a97.8 97.8 0 0 1 49.1 73.2c.7 5.7.7 5.8-1.9 5.8-3 0-3.3-.9-3.9-12-.3-4.7-1.2-9.2-2.5-12l-4.2-9.5a20.2 20.2 0 0 0-2.9-5.5c-.4-.3-3.5-4.6-6.8-9.5a92.2 92.2 0 0 0-29.5-28.1c-5.6-3.4-7.2-5.4-4.5-5.4.7 0 3.9 1.4 7.1 3z"/><path d="M202.2 120.2c.2 2.7.7 3.3 2.6 3.2l14.7-.2c12.5-.2 12.5-.2 12.5-2.6 0-1.3-.7-2.7-1.6-3-.9-.3-7.6-.6-15-.6h-13.5l.3 3.2z"/><path d="M245.8 123.2c-6.3 2.9-8.1 4.9-5.9 6.3 1.4.8 13.5-6 13.9-7.9.5-2.2-.3-2-8 1.6z"/><path d="M246.3 133.2c-4 2.2-7.3 4.6-7.3 5.4 0 .8.5 1.4 1 1.4 2 0 13.1-6.1 13.6-7.5 1.3-3.3-.5-3.1-7.3.7z"/><path d="M202 135.4c0 1.4.5 2.8 1.1 3.2.6.4 7.2.9 14.5 1.1 11.4.4 13.5.3 14-1 .3-.9.1-2.5-.6-3.6-1-2-1.9-2.1-15-2.1h-14v2.4z"/><path d="m247.6 145.2-4.8 4.1-19.9.1-19.9.1v4.7c0 4.3 1.9 7.7 2.8 5 .5-1.5 3.4-1.6 4.9-.1.6.6.8 2.9.5 5.4-.4 4.2-.4 4.4 3.7 6.4l4.1 2.1v-6.2c0-7.1.9-9.2 3.6-8.6 1.4.2 2 1.3 2.2 4.3.1 2.2.5 5.9.8 8.2.5 4.1.7 4.3 4 4.3h3.4v-7.1c0-8.6 1.2-11.4 4.1-9.8 1.8.9 2 1.9 1.7 7-.2 3.9.1 5.9.8 5.9 1.6 0 10.4-5 10.4-5.9 0-.4-1.1-1.3-2.5-1.9-1.8-.9-2.5-1.9-2.5-4.1 0-1.6.4-3.2.9-3.5 1.7-1.1 5.9 1.3 6.4 3.6.2 1.3.5-2.3.6-8l-.1-10.2c-.2 0-2.5 1.9-5.2 4.2zm1.9 5.9c-.4.5-1.3.9-2.2.9-1.3 0-1.3-.3-.3-1.5 1.3-1.5 3.5-1.1 2.5.6zm-5.5 2.8c-1.5 2.9-2.7 3.3-5.2 2l-2.3-1.2 3-1.3c4.5-2 5.8-1.8 4.5.5zm-9-.1c0 .4-1.4 2-3 3.6l-3 3-2.8-2.7c-3.5-3.3-5.5-3.4-8.4-.3l-2.3 2.5-3.2-2.9c-1.9-1.7-2.7-3-2-3.3 2.1-.7 24.7-.7 24.7.1z"/><path d="M183.2 146a42.5 42.5 0 0 0-9.5 8.2l-5.9 6.2 12.6 12.4c6.9 6.9 12.6 12.7 12.6 12.9 0 .3-1.3.2-2.9-.2-3.8-.8-8.3 2.3-10.4 7.4a72.7 72.7 0 0 0-3.7 14.6c0 .3 2.5.5 5.5.5 4.3 0 5.3-.3 4.9-1.4-.6-1.7 4-11.8 6.2-13.7 1.1-.9 2.3-1 5.2-.1 2.6.8 3.8.9 4.1.1.2-.6 1.7-2.7 3.4-4.6l3-3.5-4.4-3.8a28.5 28.5 0 0 0-6.1-4.5c-1-.4-1.8-1-1.8-1.5s-2.5-3.5-5.6-6.7c-8.1-8.4-8.1-8.5-2.8-12.3l4.5-3.2-2.6-3.3a13.9 13.9 0 0 1-2.5-4.4c0-1.7-1.4-1.3-3.8.9zm2.3 5c.4.6-.5 2.4-1.9 4.1-1.4 1.7-2.6 3.8-2.6 4.7 0 2.9 3.5 7.7 12.4 16.7 10.5 10.7 11 13 2.8 12.7-2.8-.1-4.2.6-7.3 3.7a16.5 16.5 0 0 0-4.5 6.9c-.3 1.7-1.3 3.3-2.1 3.7-1.3.4-1.5-.2-1-3.6.7-5.2 3.4-9.1 7.3-10.4 2.8-1 6.3-4.2 6.4-5.8 0-.5-4.7-5.7-10.5-11.6a65 65 0 0 1-10.5-12.4c0-1.5 8.5-9.7 10.1-9.7.4 0 1.1.5 1.4 1z"/><path d="M276.1 156.9a18 18 0 0 0-3.1 4.7c0 .4-1.6 2.1-3.5 3.9l-3.5 3.1 3.5 3.4c3.4 3.3 3.5 3.3 5.2 1.4 1-1.1 4.7-4.4 8.1-7.4l6.4-5.4-4.1-3.8a18.6 18.6 0 0 0-5-3.8c-.5 0-2.3 1.8-4 3.9zm6.9 4c-.1.3-1 1.7-2.1 3-1.9 2.3-2 2.3-4 .5l-2.1-1.9 2.7-2.3c2.1-1.8 3-2 4.1-1.1.8.6 1.4 1.4 1.4 1.8z"/><path d="M258 176.1a59 59 0 0 1-8.4 6.6l-2.8 1.5 3.1 3.2a22 22 0 0 1 4.2 6.4c.6 1.7 1.5 3.2 2.1 3.2.5 0 .7.3.4.8-.2.4.2 2.2.9 4 1.2 2.8 1.9 3.2 5.3 3.2h3.8l-.2-7c-.1-4.7-.7-7.9-1.9-9.7-1.7-2.6-1.7-2.7.8-4.5l4.8-3.7 2.2-1.8-3.9-3.6c-2.1-2-4.1-3.6-4.4-3.6-.3 0-3 2.3-6 5zm7.5.9c.4.6-.7 2.6-2.4 4.6-3.6 4.1-3.5 3.6-1.6 10.2 1.5 4.9 1.3 7.8-.3 6.8-.4-.2-2.3-3.5-4.2-7.1l-3.5-6.7 5-4.4c5.3-4.6 6-5 7-3.4z"/><path d="M160 172.9c0 .5-1.1 2.7-2.5 4.7s-2.5 4.3-2.5 5c0 .7 2.4 2.5 5.3 4.1 5.7 3.1 5.5 2.4 4.2 13.9l-.8 6.1 4.3.7c5.2.8 6 0 6-6.4 0-2.5.9-6.4 1.9-8.7l1.9-4.2-4.3-3.6c-2.4-1.9-6.4-5.6-8.9-8.1s-4.6-4.1-4.6-3.5zm8.1 12 5.4 4.8-1.8 3.7c-.9 2-1.7 4.8-1.7 6.1 0 1.4-.5 2.5-1.1 2.5-.7 0-.8-1.4-.3-4.3 1.3-7.5.1-10.2-5.8-13.3-2.9-1.5-3.8-4.4-1.5-4.4.7 0 3.8 2.2 6.8 4.9z"/><path d="M292.9 175.6a67.9 67.9 0 0 1-8.7 7.1c-2.9 2-5.1 4.2-4.9 4.7l1.7 4.6c1.2 3.4 1.3 3.5 6.1 3.2 5.4-.4 5.4-.4 3.8-3.4-.8-1.5-.8-2.3.1-3.2 2.3-2.3 4 2.3 4 11.1v8.3h11v-4.3c0-2.3-.8-7.7-1.9-11.9-1-4.3-1.6-8-1.3-8.3.3-.3.1-.5-.4-.5s-1-.9-1.1-2a15 15 0 0 0-2.6-5.4l-2.4-3.6-3.4 3.6zm5 6c1.8 4 4.1 14.4 4.1 18.6 0 6-2.6 4.9-3.4-1.5-1.1-8.5-2.4-11.6-5.3-12.4-2.1-.5-3.1 0-5 2.2-2.2 2.5-2.6 2.6-4 1.3-1.3-1.4-1.1-1.9 2.4-4.4 2.1-1.6 4.7-3.7 5.7-4.7 2.7-2.4 4.1-2.1 5.5.9z"/><path d="M221.7 184.8c-2.7 3-2.1 7.5 1.3 10.5 1.7 1.5 3 3.2 3 3.7 0 2 2.4 1 5.2-2.2 3.5-4 4-11.1.9-12.8-3.1-1.6-8.6-1.2-10.4.8zm8.1 2.5c1.9 1.5 1.5 4.7-.7 4.7-3.3 0-6.4-4.3-4.5-6.3.7-.6 3.3.1 5.2 1.6z"/><path d="M150.5 203.5a81 81 0 0 0 3 31.2c1.4 4.5 3 8.5 3.5 8.8 1.1.7 6.1-1.8 7.9-3.9.9-1 .9-2 .2-3.3a57 57 0 0 1-4.1-25.2c0-11.2-.1-12.1-1.9-12.1-1 0-3.2-.3-4.9-.6l-3-.6-.7 5.7zm6.7.7c.2.7.3 4.1.2 7.6-.2 5.5.7 13 3 23.4.5 2 .2 2.8-.7 2.8-2.4 0-5.7-14-5.7-24.3 0-5.2.3-9.7.7-10 1-1.1 2-.8 2.5.5z"/><path d="M237.6 200.1a35.8 35.8 0 0 0-9.1 15.5c-1.5 5.2-2.6 38.7-1.2 40 .4.4.7-.4.7-1.9 0-4 3.5-11.1 6.8-13.9a47 47 0 0 1 10.2-5.3c6.8-2.6 8.8-4.3 5.3-4.7l-3-.2c-2.2-.2-5.2-3.4-5.9-6.2-.6-2.2-.2-3.2 2-5.1a9.3 9.3 0 0 1 5-2.3c3.3 0 6.9 3.7 6.3 6.6-.5 2.8-.4 2.8 3.3.9 1.8-.9 3.9-3.7 5.9-7.6 4.3-8.6 4.2-8.9-2.8-8.9-7.4 0-13.7 2.2-17.8 6.2l-3.3 3.2v-6.6c0-3.7.4-7.8 1-9.2 1.2-3.1.1-3.3-3.4-.5zm-.6 12c0 1.6.4 2.9.9 2.9 1.5 0 2.3 3.3 1 4.1-1.6.9-.5 7.6 1.6 9.9 1.4 1.5 1.3 1.8-.3 3.3-1 1-2.3 1.7-2.9 1.7-.6 0-2.2.9-3.7 2.1-2.3 1.8-2.7 1.9-3.2.4-1.3-3.3.4-17.9 2.6-23.2 2.4-5.6 4-6.1 4-1.2zm25-.7c0 3.9-6.5 6.1-9 3.1-1.6-1.9-.5-3.1 3-3.8 4.8-.8 6-.7 6 .7z"/><path d="M192.7 208.3c-1.1 2.8 1.3 8.6 6.2 15 3.5 4.6 6.7 7.4 12.7 10.9 4.3 2.6 8.5 5.5 9.1 6.5 1.9 2.5 2.1 1.5 1.1-6.2l-1-8.3c-.1-.6-.5-1.2-1-1.2s-.7-.4-.4-.8c1-1.7-7.1-10.8-11.9-13.4-6.3-3.4-14-4.6-14.8-2.5zm14.5 6.3c4.5 3.2 9.7 9.6 8.1 10.1-.7.3-.4 1.2.8 2.4 1.8 1.8 2.7 5.9 1.2 5.9a37 37 0 0 1-13.3-9c-1.2-1.6-1.8-3-1.4-3 .5 0-.9-1.8-3-3.9-2.3-2.4-3.5-4.4-3.1-5.1 1.1-1.7 6.2-.4 10.7 2.6z"/><path d="M282.8 213c.6 5.5-.8 6.8-6.8 6.6-6.1-.3-7.9.7-12.5 6.7-3 3.9-3.8 6-4.2 10.7-.6 6.6-.5 6.7 7.6 8.5l3.4.7-.5-5.1c-.5-5-.4-5.2 3.8-9.1 2.4-2.2 5-4 5.8-4 4.9 0 10.5 4.7 10.6 8.8 0 2.5-3.3 9.7-5 10.7-1.9 1.2-1 2.3 3.6 4.9l5 2.6c.7 0 7.4-12.8 7.8-15.1.2-1.3.5-2.5.7-2.7l.3-1.1c0-.5.4-1.3.9-1.7 1.6-1.6.4-2.2-5.7-2.9-5.8-.6-6.4-.8-6.1-2.8l1.1-7c.5-3.7.4-5.1-.7-5.8-1-.6-1-.9-.1-.9.7 0 1.2-1.3 1.2-3 0-3-.1-3-5.3-3h-5.3l.4 4zm6.2 5.9c0 7.7-.3 8.1-5.5 6.5-4.3-1.2-4.5-1.2-8.7 1.8-5.6 4-8.6 7.6-9 10.5-.4 3.2-2.2 3-2.6-.3-.5-3.8 1.5-7.9 5.5-11.4 2.6-2.4 4.3-3 7.8-3s4.9-.5 7-2.7c1.4-1.5 2.5-3.6 2.5-4.5 0-1 .7-1.8 1.5-1.8 1.1 0 1.5 1.2 1.5 4.9zm9 17.6c0 2.5-3.1 10.8-4.7 12.3-1 1-1.8 1.1-2.5.4-.7-.7-.3-3.1 1.2-7.6 1.7-5 2.7-6.6 4.1-6.6 1.1 0 1.9.7 1.9 1.5z"/><path d="M164 221.4c0 3.6 2.3 7.6 4.3 7.6 5.4 0 6.7-1.1 6.7-5.1V220h-5.5c-4 0-5.5.4-5.5 1.4z"/><path d="M177.8 220.5c-.2.3-.1 2.8.2 5.7.8 6.3 4.4 9.8 10.1 9.8 8.7 0 9.2-9.8.7-14.1-3.4-1.7-9.8-2.6-11-1.4zm11.2 7c1.2 1.3 1.9 2.8 1.5 3.4-1.2 2-5.4 1.2-7.1-1.4-3.4-5.2 1.1-6.8 5.6-2z"/><path d="M126 225.7c0 10.2 10.1 37 17.7 47.1 13 17.3 33.6 32.6 51.2 38.1l6.1 1.9v-6.4c0-5.3-.3-6.6-1.7-7a140.6 140.6 0 0 1-27.4-14.6 93.4 93.4 0 0 1-33.6-53.8c-.3-1.4-.5-4-.4-5.8l.1-3.2h-12v3.7zm9.4 9.2c2.8 13.1 7.6 23 17 35.1a90.7 90.7 0 0 0 35.1 28.7c8 3.7 10.4 5.8 8.9 7.3-1.9 1.9-19.1-6.3-28.7-13.8a165.5 165.5 0 0 1-21.7-22.7 104.5 104.5 0 0 1-14.1-31.7c-2.4-8.6-2.4-10.8 0-10.8 1.5 0 2.1 1.5 3.5 7.9z"/><path d="M320.5 222.8c-1.6.5-2.1 1.7-2.4 5a87.8 87.8 0 0 1-6.9 22.4 106.1 106.1 0 0 1-33 38.2A80 80 0 0 1 255 299c-2.2 0-2.7 2-2.2 8.7l.4 5.1 4-1.4c2.2-.8 4.9-1.4 5.9-1.4 2.6 0 15.7-7 23.3-12.4a104 104 0 0 0 35.9-44.3c3.9-9.1 5-12.6 6.5-19.6l.3-1a49.5 49.5 0 0 1 1.1-8.7c.2-1.1-.8-1.5-3.7-1.7-2.2-.1-4.9.2-6 .5zm5.2 4.9c0 1-.5 4.7-1.3 8.3-5.8 28.1-28.6 56-55.2 67.6-7.8 3.4-11.6 4.2-12.7 2.4-.8-1.2 3-5 5.1-5 2.5 0 15.3-6.9 21.9-11.9 7.4-5.6 19.6-18.3 23.7-24.8 6.7-10.3 13.8-28.2 13.8-34.4 0-2.6 1-3.6 3.6-3.8.6-.1 1.1.7 1.1 1.6z"/><path d="M167.5 233.7c1.6 6.8 9.2 18.3 12 18.3a18 18 0 0 0 5.6-3.6c5.3-4.4 9.1-6.4 12.4-6.4 2.1 0 2.5-.5 2.5-2.8 0-1.6-.6-3.7-1.4-4.7-1.3-1.8-1.4-1.8-2 .2-.8 2.4-6.2 5.3-9.8 5.3-3.2 0-8.6-3.5-10-6.5-.9-2.1-1.8-2.5-5.6-2.5-4.3 0-4.4.1-3.7 2.7zm14.2 8.4c1.3.5 2.3 1.3 2.3 1.9 0 1.1-4.7 3.6-5.4 2.9l-3-4.3c-3.7-5.5-3.4-7.5.6-4.1 1.8 1.5 4.2 3.1 5.5 3.6z"/><path d="M194.9 247.3c-4.7 3.1-6 8.2-3.3 12.8 3.2 5.4 9.4 4.9 9.4-.7 0-1.9.5-2.4 2.5-2.4 2.9 0 7.4 4 7.7 6.7a597.3 597.3 0 0 1 .7 28l.1 24.2 2.8.3 2.7.3V330c0 13.1.1 14 4.4 28 4.8 16.1 6 19.4 6.6 18.9A100.7 100.7 0 0 1 236 346c.6-1.2.9-3.2.6-4.3a126 126 0 0 1-.7-13.7l-.2-11.5 2.6-.3 2.5-.3.1-21.9c.2-23.5 1.1-29.7 5.4-34.4 2.7-3 8.9-5.7 10.7-4.6 1.5 1 .4 3-1.6 3-1.1 0-1.3.6-.8 2.2 1.6 5.5 3.5 5.9 8.3 2 4.8-4.1 5-8.1.6-12.7-11.8-12.6-32.9 3.1-34.3 25.5-.4 6.5-.3 7.3 1 6.2.9-.7 1.8-3.4 2.2-6 2-15.1 10.7-26.1 21-26.5 3.8-.1 4.9.3 6.9 2.7 1.5 1.7 2.3 3.6 2 4.7-.5 1.9-2.5 3.9-2.2 2.2 1-5.5-6.1-8.2-11.9-4.6a16.5 16.5 0 0 0-7.4 8.6c-2.6 5.5-2.8 8.3-3.8 47.9 0 .9-1.1 3-2.5 4.6-2.4 2.8-2.4 3.4-2.4 17.3.1 10.6-.3 15.7-1.5 19.4-.9 2.7-1.6 6.5-1.6 8.3 0 2-.4 3.1-1 2.7-.7-.5-1-13.9-1-40.7.1-22-.1-40.2-.4-40.5-.3-.4-.6-2.1-.6-3.8a44 44 0 0 0-11.9-26.7c-6.5-5.9-13.7-7.2-19.2-3.5zm13.8 3.9c6.6 4.9 10.8 12.6 13.4 24.1.7 3.2 1.6 6 2.1 6.3.4.3.8 15.9.8 34.7l-.1 34.2-2-2.5c-2-2.3-2-3.3-1.4-16.1l.6-13.6-2.8-3.3-2.8-3.4-.6-23c-.6-25.1-1.2-28.3-6.4-32.4-3.7-3-8-2.8-11.1.3-2.8 2.8-4.4 2.5-4.4-.7 0-6.2 8.8-8.9 14.7-4.6z"/><path d="M168.8 251.3a41.7 41.7 0 0 1-4.4 3.3c-1.7 1-1.7 1.2.4 4.1 4.5 6.3 19 18.9 26 22.6 9.4 5 10.2 4.9 10.2-1.1 0-3.5-.5-5.2-2-6.5-1.1-.9-2-1.3-2-.9s-.4.2-.8-.4a104.2 104.2 0 0 1-22.4-20.4l-2.3-3-2.7 2.3zm10.3 12.4c2.2 2.4 4.3 4.3 4.6 4.3.3 0 1.3.8 2.2 1.8.9 1 3.3 2.6 5.3 3.5 3.2 1.5 5.8 4.2 5.8 6.1 0 1.4-6-2-12.5-6.9a55.8 55.8 0 0 1-14.8-14.7c-.9-2.6 1.6-2.9 3.6-.4l5.8 6.3z"/><path d="M269.5 264.1a59 59 0 0 1-10.7 7.2l-4.8 2.2v11.4l3.3-.6c1.7-.3 4.9-1.4 6.9-2.4a98.3 98.3 0 0 0 19.3-13.8c.5-1.3-6.1-9.2-7.5-9-.3 0-3.2 2.3-6.5 5zm9.5 2.7c-.1 2.6-14.3 12.2-18.2 12.2-4.5 0-3.3-2.5 3-6.4 3.1-1.9 7-4.6 8.7-6 2.2-1.8 3.4-2.2 4.7-1.5 1 .5 1.8 1.3 1.8 1.7z"/></svg>